PathFileType	4	(X/Y/Z) shrug_2kg_2.trc																										
DataRate	CameraRate	NumFrames	NumMarkers	Units	OrigDataRate	OrigDataStartFrame	OrigNumFrames																					
100	100	34	9	mm	100	181	480																					
Frame#	Time	gu			centelbow			EpL			centpxt8			centijc7			ij			ts			aa			ai		
		X1	Y1	Z1	X2	Y2	Z2	X3	Y3	Z3	X4	Y4	Z4	X5	Y5	Z5	X6	Y6	Z6	X7	Y7	Z7	X8	Y8	Z8	X9	Y9	Z9  
180	1.8	-127.64	51.667	149.264	-124.032	-184.493	221.374	-120.778	-171.335	250.626	-46.816	-153.158	-8.669	-46.816	31.938	-8.669	0	0	0	-130.206	42.092	14.24	-158.68	80.798	123.4	-141.483	-63.472	54.423
181	1.81	-127.626	51.846	149.314	-123.908	-184.342	221.326	-120.66	-171.195	250.584	-46.816	-153.158	-8.669	-46.816	31.938	-8.669	0	0	0	-130.248	42.112	14.323	-158.718	80.787	123.495	-141.542	-63.463	54.472
182	1.82	-127.63	52.016	149.419	-123.832	-184.191	221.362	-120.593	-171.052	250.624	-46.816	-153.158	-8.669	-46.816	31.938	-8.669	0	0	0	-130.264	42.064	14.382	-158.734	80.717	123.562	-141.589	-63.519	54.502
183	1.83	-127.656	51.906	149.448	-123.885	-184.329	221.306	-120.645	-171.2	250.573	-46.816	-153.158	-8.669	-46.816	31.938	-8.669	0	0	0	-130.333	42.037	14.279	-158.78	80.671	123.471	-141.678	-63.553	54.375
184	1.84	-127.731	51.635	149.355	-124.027	-184.638	221.088	-120.774	-171.526	250.361	-46.816	-153.158	-8.669	-46.816	31.938	-8.669	0	0	0	-130.482	42.086	14.116	-158.895	80.688	123.328	-141.826	-63.516	54.182
185	1.85	-127.809	51.508	149.298	-124.12	-184.806	220.899	-120.857	-171.71	250.178	-46.816	-153.158	-8.669	-46.816	31.938	-8.669	0	0	0	-130.593	42.143	14.094	-158.975	80.7	123.33	-141.937	-63.475	54.116
186	1.86	-127.768	51.513	149.423	-124.055	-184.833	220.915	-120.79	-171.751	250.2	-46.816	-153.158	-8.669	-46.816	31.938	-8.669	0	0	0	-130.554	42.113	14.306	-158.921	80.618	123.565	-141.922	-63.524	54.272
187	1.87	-127.56	51.456	149.569	-123.823	-184.913	220.986	-120.559	-171.839	250.275	-46.816	-153.158	-8.669	-46.816	31.938	-8.669	0	0	0	-130.386	42.017	14.562	-158.748	80.473	123.84	-141.795	-63.637	54.471
188	1.88	-127.336	51.281	149.503	-123.571	-185.105	220.861	-120.303	-172.039	250.153	-46.816	-153.158	-8.669	-46.816	31.938	-8.669	0	0	0	-130.262	41.966	14.569	-158.605	80.385	123.864	-141.699	-63.701	54.434
189	1.89	-127.285	51.103	149.262	-123.479	-185.3	220.561	-120.2	-172.241	249.855	-46.816	-153.158	-8.669	-46.816	31.938	-8.669	0	0	0	-130.317	41.967	14.374	-158.62	80.361	123.688	-141.773	-63.709	54.211
190	1.9	-127.401	51.054	149.067	-123.535	-185.367	220.303	-120.246	-172.315	249.599	-46.816	-153.158	-8.669	-46.816	31.938	-8.669	0	0	0	-130.444	41.943	14.291	-158.702	80.313	123.626	-141.933	-63.741	54.097
191	1.91	-127.489	51.101	149.084	-123.57	-185.344	220.237	-120.274	-172.302	249.537	-46.816	-153.158	-8.669	-46.816	31.938	-8.669	0	0	0	-130.438	41.918	14.434	-158.665	80.256	123.788	-141.979	-63.777	54.194
192	1.92	-127.392	51.076	149.248	-123.48	-185.401	220.296	-120.173	-172.372	249.6	-46.816	-153.158	-8.669	-46.816	31.938	-8.669	0	0	0	-130.274	41.963	14.618	-158.488	80.259	123.99	-141.875	-63.747	54.323
193	1.93	-127.196	50.967	149.273	-123.319	-185.537	220.23	-119.994	-172.52	249.537	-46.816	-153.158	-8.669	-46.816	31.938	-8.669	0	0	0	-130.108	42.067	14.68	-158.309	80.321	124.069	-141.764	-63.657	54.33
194	1.94	-127.123	50.959	149.028	-123.203	-185.56	219.935	-119.86	-172.548	249.244	-46.816	-153.158	-8.669	-46.816	31.938	-8.669	0	0	0	-130.091	42.151	14.636	-158.271	80.369	124.044	-141.788	-63.586	54.241
195	1.95	-127.198	51.06	148.748	-123.174	-185.468	219.62	-119.823	-172.46	248.929	-46.816	-153.158	-8.669	-46.816	31.938	-8.669	0	0	0	-130.219	42.158	14.593	-158.38	80.345	124.016	-141.949	-63.589	54.16
196	1.96	-127.239	51.031	148.714	-123.187	-185.515	219.521	-119.833	-172.515	248.833	-46.816	-153.158	-8.669	-46.816	31.938	-8.669	0	0	0	-130.348	42.13	14.632	-158.496	80.288	124.069	-142.104	-63.628	54.163
197	1.97	-127.167	50.79	148.911	-123.193	-185.785	219.63	-119.833	-172.797	248.946	-46.816	-153.158	-8.669	-46.816	31.938	-8.669	0	0	0	-130.382	42.116	14.687	-158.501	80.247	124.141	-142.153	-63.651	54.189
198	1.98	-127.082	50.497	149.12	-123.195	-186.101	219.764	-119.826	-173.123	249.084	-46.816	-153.158	-8.669	-46.816	31.938	-8.669	0	0	0	-130.332	42.091	14.648	-158.401	80.196	124.123	-142.11	-63.685	54.123
199	1.99	-127.078	50.297	149.226	-123.203	-186.317	219.82	-119.831	-173.345	249.142	-46.816	-153.158	-8.669	-46.816	31.938	-8.669	0	0	0	-130.226	42.037	14.602	-158.264	80.109	124.097	-142.011	-63.751	54.045
200	2	-127.173	50.275	149.306	-123.197	-186.349	219.857	-119.832	-173.382	249.182	-46.816	-153.158	-8.669	-46.816	31.938	-8.669	0	0	0	-130.109	42.016	14.692	-158.158	80.043	124.2	-141.887	-63.788	54.092
201	2.01	-127.324	50.492	149.416	-123.146	-186.142	219.922	-119.792	-173.178	249.249	-46.816	-153.158	-8.669	-46.816	31.938	-8.669	0	0	0	-130.046	42.096	14.847	-158.122	80.067	124.367	-141.788	-63.729	54.203
202	2.02	-127.443	50.836	149.468	-123.047	-185.815	219.905	-119.694	-172.855	249.235	-46.816	-153.158	-8.669	-46.816	31.938	-8.669	0	0	0	-130.082	42.235	14.94	-158.167	80.14	124.48	-141.767	-63.614	54.246
203	2.03	-127.403	51.093	149.386	-122.854	-185.585	219.72	-119.49	-172.637	249.053	-46.816	-153.158	-8.669	-46.816	31.938	-8.669	0	0	0	-130.177	42.345	14.955	-158.256	80.178	124.523	-141.808	-63.531	54.206
204	2.04	-127.118	51.201	149.224	-122.467	-185.511	219.441	-119.088	-172.576	248.779	-46.816	-153.158	-8.669	-46.816	31.938	-8.669	0	0	0	-130.203	42.403	14.896	-158.268	80.175	124.487	-141.787	-63.495	54.101
205	2.05	-126.691	51.21	149.051	-121.937	-185.535	219.148	-118.549	-172.614	248.491	-46.816	-153.158	-8.669	-46.816	31.938	-8.669	0	0	0	-130.103	42.409	14.724	-158.141	80.14	124.338	-141.637	-63.504	53.903
206	2.06	-126.327	51.106	148.932	-121.472	-185.678	218.89	-118.083	-172.773	248.239	-46.816	-153.158	-8.669	-46.816	31.938	-8.669	0	0	0	-129.977	42.341	14.499	-157.984	80.027	124.136	-141.464	-63.589	53.647
207	2.07	-126.099	50.884	148.959	-121.19	-185.943	218.768	-117.804	-173.056	248.126	-46.816	-153.158	-8.669	-46.816	31.938	-8.669	0	0	0	-129.922	42.195	14.328	-157.907	79.827	123.989	-141.384	-63.755	53.43
208	2.08	-125.995	50.702	149.085	-121.057	-186.159	218.775	-117.672	-173.285	248.139	-46.816	-153.158	-8.669	-46.816	31.938	-8.669	0	0	0	-129.895	42.06	14.211	-157.868	79.644	123.891	-141.353	-63.907	53.267
209	2.09	-125.997	50.71	149.122	-120.99	-186.168	218.747	-117.607	-173.302	248.115	-46.816	-153.158	-8.669	-46.816	31.938	-8.669	0	0	0	-129.77	42.046	14.136	-157.738	79.59	123.832	-141.224	-63.935	53.156
210	2.1	-126.027	50.751	149.048	-120.954	-186.138	218.633	-117.57	-173.276	248.002	-46.816	-153.158	-8.669	-46.816	31.938	-8.669	0	0	0	-129.541	42.125	14.169	-157.499	79.627	123.881	-140.989	-63.871	53.15
211	2.11	-126.007	50.58	149.072	-120.961	-186.332	218.579	-117.576	-173.48	247.952	-46.816	-153.158	-8.669	-46.816	31.938	-8.669	0	0	0	-129.38	42.177	14.324	-157.323	79.633	124.056	-140.838	-63.835	53.257
212	2.12	-125.904	50.237	149.35	-120.975	-186.722	218.708	-117.588	-173.89	248.09	-46.816	-153.158	-8.669	-46.816	31.938	-8.669	0	0	0	-129.388	42.134	14.518	-157.307	79.54	124.273	-140.878	-63.895	53.395
213	2.13	-125.736	49.925	149.774	-120.907	-187.09	218.946	-117.517	-174.282	248.338	-46.816	-153.158	-8.669	-46.816	31.938	-8.669	0	0	0	-129.487	42.032	14.598	-157.359	79.383	124.384	-141.011	-64.016	53.415
